<svg style="position: absolute; top: 50%; left: 0; transform: translateY(-50%); width: 220px; height: 70px; z-index: -1;" xmlns="http://www.w3.org/2000/svg" xmlns:xlink="http://www.w3.org/1999/xlink" fill="none" version="1.1" width="220.45343017578125" height="70.360107421875" viewBox="0 0 220.45343017578125 70.360107421875"><g transform="matrix(-1,0,0,1,440.9068603515625,0)"><g><path d="M347.0844301757812,61.6897C347.28043017578125,60.5324,347.86243017578124,59.8797,348.9614301757813,59.5859C349.8294301757812,59.3538,350.1424301757812,58.7557,349.39543017578126,58.7557C348.5654301757812,58.7557,347.52243017578127,57.7509,347.1854301757812,56.6249C346.80043017578123,55.3391,346.53843017578123,55.3001,346.31443017578124,56.4952C346.12243017578123,57.519,345.21543017578125,58.3666,344.03343017578123,58.6261C343.03243017578126,58.846,343.03443017578127,59.1949,344.03843017578123,59.4155C344.97743017578125,59.6217,346.04943017578125,60.8145,346.2934301757813,61.9243C346.53543017578124,63.0268,346.8754301757813,62.926,347.0844301757812,61.6897L347.0844301757812,61.6897ZM436.85443017578126,69.2012C437.09043017578125,67.624,438.0704301757812,66.5989,439.58543017578126,66.3429C440.72543017578124,66.1504,441.26543017578126,65.7526,440.64843017578124,65.5603C440.45743017578127,65.5007,439.98243017578125,65.3825,439.59343017578124,65.2977C438.27343017578124,65.0096,437.31843017578126,63.9296,436.99143017578126,62.3557C436.6394301757813,60.66,436.31443017578124,60.507,436.07543017578126,61.9243C435.72743017578125,63.9822,434.89643017578123,64.728,432.01643017578124,65.5674C431.4284301757813,65.7387,431.9544301757812,66.2015,432.73643017578127,66.2015C434.0674301757813,66.2015,435.2194301757812,67.2333,435.76843017578125,68.9183C436.36743017578124,70.7574,436.61143017578127,70.821,436.85443017578126,69.2012ZM222.37878017578126,47.3387C222.92285017578126,46.6832,222.61279017578124,45.7471,221.82116017578124,45.6554C220.92119817578126,45.5513,220.16631517578125,46.496,220.56066317578126,47.2328C220.87200417578126,47.8145,221.93261017578126,47.8763,222.37878017578126,47.3387ZM388.74643017578126,11.6084C389.29443017578126,8.82739,390.34343017578124,7.80078,393.0364301757812,7.41327C394.8394301757812,7.15381,394.94643017578124,6.58032,393.27143017578123,6.151C390.31343017578126,5.3927,389.50143017578125,4.41968,388.9164301757812,0.931579C388.67443017578125,-0.508426,388.3774301757812,-0.29297,387.89143017578124,1.67535C387.19143017578125,4.51349,386.25143017578125,5.39886,383.25443017578124,6.04156C381.7504301757813,6.36395,381.50843017578126,6.7215,382.62143017578126,6.97229C384.87843017578126,7.48047,385.48643017578127,7.724,386.14643017578123,8.38391C386.81643017578125,9.05463,387.71543017578125,11.3416,387.71543017578125,12.3787C387.71543017578125,12.838,387.9404301757812,13.1685,388.25343017578126,13.1685C388.35643017578127,13.1685,388.57843017578125,12.4664,388.74643017578126,11.6084ZM334.2504301757813,19.5743C334.5004301757813,18.9758,334.86843017578127,18.5985,335.31243017578123,18.4872C336.20643017578124,18.2628,336.16943017578126,17.9509,335.18843017578126,17.4436C334.66043017578124,17.1706,334.33243017578127,16.7607,334.22943017578126,16.2462C334.0244301757813,15.2241,333.79043017578124,15.2578,333.3894301757813,16.3671C333.16043017578124,16.9993,332.81443017578124,17.3569,332.23443017578126,17.5589C331.36043017578123,17.8637,331.37843017578126,18.0069,332.34843017578123,18.4829C332.6784301757813,18.6448,333.11843017578127,19.1629,333.32643017578124,19.6341C333.7934301757813,20.6915,333.78243017578126,20.6921,334.2504301757813,19.5743Z" fill="#FAD385" fill-opacity="1" style="mix-blend-mode:passthrough"/></g><g><path d="M406.1970749382813,59.32528073828125C405.8412402382813,60.44643673828125,407.07421123828124,61.38259673828125,407.8651042382813,60.59175673828125C408.3002842382812,60.15657673828125,408.26427423828125,59.18972173828125,407.7983942382813,58.80312573828125C407.29876423828125,58.38845273828125,406.40154223828125,58.68105503828125,406.1970749382813,59.32528073828125Z" fill="#FAD385" fill-opacity="1" style="mix-blend-mode:passthrough"/></g><g><path d="M294.17772679375,33.3145995859375C293.82189209375,34.4357555859375,295.05486309375,35.3719155859375,295.84575609375,34.5810755859375C296.28093609375,34.1458955859375,296.24492609375,33.1790405859375,295.77904609375,32.7924445859375C295.27941609375,32.3777715859375,294.38219409375,32.6703738859375,294.17772679375,33.3145995859375Z" fill="#FAD385" fill-opacity="1" style="mix-blend-mode:passthrough"/></g><g><path d="M253.2798843828125,7.215705784606934C252.6920543828125,7.387035784606933,253.2181773828125,7.8498657846069335,254.0007703828125,7.8498657846069335C255.3317623828125,7.8498657846069335,256.4830123828125,8.881665784606934,257.0320223828125,10.566595784606934C257.6313223828125,12.405775784606934,257.8750423828125,12.469305784606934,258.1179623828125,10.849495784606933C258.3544723828125,9.272285784606932,259.3341423828125,8.247265784606935,260.8495823828125,7.991225784606933C261.9889323828125,7.798715784606934,262.5292123828125,7.400885784606934,261.9123923828125,7.208625784606934C261.7212923828125,7.149055784606934,261.2466823828125,7.030835784606934,260.8577023828125,6.945995784606934C259.5376323828125,6.657965784606934,258.5824323828125,5.577955784606933,258.2556523828125,4.004035784606934C257.9036623828125,2.3083597846069335,257.5784723828125,2.1552837846069335,257.3389623828125,3.5725817846069337C256.9912523828125,5.6305057846069335,256.1602523828125,6.376355784606933,253.2798843828125,7.215705784606934Z" fill="#FAD385" fill-opacity="1" style="mix-blend-mode:passthrough"/></g><g><path d="M270.24951974609377,51.6619839453125C269.1323927460937,52.1947039453125,269.11182374609376,52.3329439453125,270.09473374609377,52.7039139453125C270.61169974609373,52.8990439453125,270.97137974609376,53.3031639453125,271.20624974609376,53.9525739453125C271.62799974609374,55.1188339453125,271.77289974609374,55.1443439453125,272.15942974609374,54.1200539453125C272.32397974609376,53.6841439453125,272.8255697460938,53.1185939453125,273.27411974609373,52.8632839453125C274.28503974609373,52.2879039453125,274.29101974609375,52.1484939453125,273.32190974609375,51.7470639453125C272.89606974609376,51.5706739453125,272.40783974609377,51.0824539453125,272.23144974609374,50.6566159453125C271.83887974609377,49.7088009453125,271.55688974609376,49.6766969453125,271.33655974609377,50.5546269453125C271.23272974609375,50.9683239453125,270.81781974609373,51.3909939453125,270.24951974609377,51.6619839453125Z" fill="#FAD385" fill-opacity="1" style="mix-blend-mode:passthrough"/></g></g></svg>